<svg width="72" height="73" viewBox="0 0 72 73" fill="none" xmlns="http://www.w3.org/2000/svg">
<path d="M35.9393 72.4997C34.1959 72.4845 32.4572 71.8117 31.127 70.4815L2.01846 41.373C-0.672816 38.6817 -0.672825 34.3183 2.01846 31.627L31.127 2.51846C33.8183 -0.172816 38.1817 -0.172825 40.873 2.51846L69.9815 31.627C71.3117 32.9572 71.9845 34.6959 71.9997 36.4393C72.0001 36.4798 72.0001 36.5202 71.9997 36.5607C71.9845 38.3041 71.3117 40.0428 69.9815 41.373L40.873 70.4815C39.5428 71.8117 37.8041 72.4845 36.0607 72.4997C36.0202 72.5001 35.9798 72.5001 35.9393 72.4997ZM34.3757 5.76713L21.4457 18.6971L36 33.2513L50.5543 18.6971L37.6243 5.76713C36.7272 4.87003 35.2728 4.87003 34.3757 5.76713ZM39.2487 36.5L53.8029 51.0543L66.7329 38.1243C67.63 37.2272 67.63 35.7728 66.7329 34.8757L53.8029 21.9457L39.2487 36.5ZM36 39.7487L21.4457 54.3029L34.3757 67.2329C35.2728 68.13 36.7272 68.13 37.6243 67.2329L50.5543 54.3029L36 39.7487ZM32.7513 36.5L18.1971 21.9457L5.26713 34.8757C4.37003 35.7728 4.37003 37.2272 5.26713 38.1243L18.1971 51.0543L32.7513 36.5Z" fill="#DAFF01"/>
</svg>
