<svg width="70" height="55" viewBox="0 0 70 55" fill="none" xmlns="http://www.w3.org/2000/svg">
<path d="M50.9019 23H68.5981C69.5519 23 70.0729 24.1125 69.4623 24.8452L60.6142 35.4629C60.1645 36.0026 59.3355 36.0026 58.8857 35.4629L50.0377 24.8452C49.4271 24.1125 49.9481 23 50.9019 23Z" fill="#DAFF01"/>
<path d="M1.40192 32H19.0981C20.0519 32 20.5729 30.8875 19.9623 30.1548L11.1142 19.5371C10.6645 18.9974 9.83552 18.9974 9.38575 19.5371L0.537666 30.1548C-0.0729532 30.8875 0.448099 32 1.40192 32Z" fill="#DAFF01"/>
<path fill-rule="evenodd" clip-rule="evenodd" d="M35 5C28.0138 5 21.7725 8.18135 17.6421 13.1828C16.8508 14.1409 15.4326 14.2761 14.4745 13.4849C13.5163 12.6936 13.3811 11.2754 14.1724 10.3172C19.121 4.32512 26.6148 0.5 35 0.5C48.2377 0.5 59.2461 10.0243 61.5549 22.5935C61.5797 22.7287 61.6035 22.8642 61.6263 23H57.0504C54.9668 12.73 45.8838 5 35 5ZM12.9496 32C15.0332 42.27 24.1162 50 35 50C41.9862 50 48.2274 46.8186 52.3579 41.8172C53.1492 40.8591 54.5674 40.7239 55.5255 41.5151C56.4837 42.3064 56.6189 43.7246 55.8276 44.6828C50.879 50.6749 43.3852 54.5 35 54.5C21.7623 54.5 10.7539 44.9757 8.44512 32.4065C8.42029 32.2713 8.39647 32.1358 8.37367 32H12.9496Z" fill="#DAFF01"/>
</svg>
